<svg width="45" height="45" viewBox="0 0 45 45" fill="none" xmlns="http://www.w3.org/2000/svg">
<path d="M38.0769 0H6.92308C5.08758 0.00200429 3.32783 0.732042 2.02994 2.02994C0.732042 3.32783 0.00200429 5.08758 0 6.92308V38.0769C0.00200429 39.9124 0.732042 41.6722 2.02994 42.9701C3.32783 44.268 5.08758 44.998 6.92308 45H38.0769C39.9124 44.998 41.6722 44.268 42.9701 42.9701C44.268 41.6722 44.998 39.9124 45 38.0769V6.92308C44.998 5.08758 44.268 3.32783 42.9701 2.02994C41.6722 0.732042 39.9124 0.00200429 38.0769 0ZM34.2097 14.9593L19.6713 32.2669C19.5118 32.4569 19.3134 32.6104 19.0894 32.7169C18.8654 32.8235 18.6212 32.8807 18.3732 32.8846H18.344C18.1014 32.8845 17.8615 32.8334 17.64 32.7347C17.4184 32.6359 17.22 32.4917 17.0578 32.3113L10.827 25.3882C10.6688 25.2204 10.5457 25.0226 10.465 24.8065C10.3843 24.5904 10.3476 24.3604 10.357 24.1299C10.3665 23.8995 10.4219 23.6732 10.5201 23.4645C10.6182 23.2557 10.7571 23.0687 10.9286 22.9144C11.1 22.7601 11.3006 22.6416 11.5185 22.5659C11.7364 22.4903 11.9673 22.4589 12.1975 22.4737C12.4276 22.4885 12.6526 22.5492 12.859 22.6522C13.0654 22.7551 13.2491 22.8983 13.3994 23.0733L18.2986 28.5166L31.5595 12.7331C31.857 12.3891 32.2778 12.1761 32.7311 12.14C33.1843 12.1039 33.6336 12.2476 33.9818 12.54C34.3299 12.8325 34.549 13.2502 34.5917 13.7029C34.6343 14.1556 34.4971 14.6069 34.2097 14.9593Z" fill="white"/>
</svg>
